<svg width="800" height="600" viewBox="0 0 800 600" xmlns="http://www.w3.org/2000/svg">
  <defs>
    <clipPath id="circleClip"><circle cx="400" cy="300" r="260"/></clipPath>
  </defs>

  <circle cx="400" cy="300" r="270" fill="#FFF0D8"/>
  <circle cx="400" cy="300" r="260" fill="#FFF8EC"/>

  <g clip-path="url(#circleClip)">
    <ellipse cx="400" cy="480" rx="320" ry="60" fill="#F2A93B" opacity="0.25"/>

    <g transform="translate(160,300)">
      <path d="M0 40 Q-10 -40 40 -60 Q90 -40 80 40 Q40 70 0 40 Z" fill="#D64545"/>
      <path d="M0 40 Q-10 -40 40 -60 Q90 -40 80 40 Q40 70 0 40 Z" fill="none" stroke="#B93636" stroke-width="3"/>
      <ellipse cx="40" cy="10" rx="34" ry="46" fill="#F2A93B"/>
      <text x="40" y="18" text-anchor="middle" font-family="Baloo 2, sans-serif" font-weight="700" font-size="16" fill="#2B1B12">CHIPS</text>
    </g>

    <g transform="translate(300,220)">
      <ellipse cx="0" cy="140" rx="120" ry="26" fill="#5B7B4F"/>
      <ellipse cx="0" cy="128" rx="118" ry="24" fill="#6E9260"/>
      <ellipse cx="-40" cy="118" rx="26" ry="16" fill="#F2A93B" transform="rotate(-10 -40 118)"/>
      <ellipse cx="10" cy="112" rx="28" ry="17" fill="#D98A1C" transform="rotate(8 10 112)"/>
      <ellipse cx="55" cy="122" rx="24" ry="15" fill="#F2A93B" transform="rotate(-15 55 122)"/>
      <ellipse cx="-10" cy="98" rx="22" ry="14" fill="#D98A1C" transform="rotate(12 -10 98)"/>
    </g>

    <g transform="translate(520,260)">
      <path d="M-30 -60 Q-30 -80 -10 -80 L10 -80 Q30 -80 30 -60 L34 60 Q34 78 16 78 L-16 78 Q-34 78 -34 60 Z" fill="#2B1B12"/>
      <path d="M-24 -50 L24 -50 L28 55 Q28 65 16 65 L-16 65 Q-28 65 -28 55 Z" fill="#F2A93B"/>
      <circle cx="0" cy="0" r="24" fill="#D64545"/>
      <text x="0" y="6" text-anchor="middle" font-family="Baloo 2, sans-serif" font-weight="700" font-size="13" fill="#FFF8EC">SNACK</text>
    </g>

    <g transform="translate(230,420)">
      <circle cx="0" cy="0" r="30" fill="#D98A1C"/>
      <circle cx="0" cy="0" r="30" fill="none" stroke="#B87A15" stroke-width="2"/>
      <circle cx="-10" cy="-6" r="4" fill="#5B3C28"/>
      <circle cx="8" cy="-10" r="4" fill="#5B3C28"/>
      <circle cx="10" cy="8" r="4" fill="#5B3C28"/>
      <circle cx="-8" cy="10" r="4" fill="#5B3C28"/>
    </g>
    <g transform="translate(300,450)">
      <circle cx="0" cy="0" r="26" fill="#F2A93B"/>
      <circle cx="-8" cy="-4" r="3.5" fill="#5B3C28"/>
      <circle cx="6" cy="-8" r="3.5" fill="#5B3C28"/>
      <circle cx="8" cy="6" r="3.5" fill="#5B3C28"/>
      <circle cx="-6" cy="8" r="3.5" fill="#5B3C28"/>
    </g>

    <g transform="translate(560,420)">
      <rect x="-26" y="-40" width="52" height="80" rx="10" fill="#2B1B12"/>
      <rect x="-26" y="-40" width="52" height="30" rx="10" fill="#5B3C28"/>
      <rect x="-20" y="10" width="40" height="8" fill="#F2A93B"/>
    </g>

    <g transform="translate(400,150)">
      <path d="M-50 20 Q-50 -20 0 -20 Q50 -20 50 20 L50 30 Q50 40 40 40 L-40 40 Q-50 40 -50 30 Z" fill="#D98A1C"/>
      <path d="M-40 22 Q-40 0 0 0 Q40 0 40 22" fill="none" stroke="#F2A93B" stroke-width="3"/>
    </g>
  </g>

  <circle cx="400" cy="300" r="260" fill="none" stroke="#D64545" stroke-width="4" stroke-dasharray="2 14" stroke-linecap="round"/>
</svg>
